<?xml version="1.0" encoding="UTF-8" standalone="no"?>
<!-- Created with Inkscape (http://www.inkscape.org/) -->

<svg
   width="97.590614mm"
   height="24.425314mm"
   viewBox="0 0 368.84643 92.316148"
   version="1.1"
   id="svg5"
   xml:space="preserve"
   inkscape:version="1.2.2 (b0a8486541, 2022-12-01)"
   sodipodi:docname="mp.svg"
   xmlns:inkscape="http://www.inkscape.org/namespaces/inkscape"
   xmlns:sodipodi="http://sodipodi.sourceforge.net/DTD/sodipodi-0.dtd"
   xmlns="http://www.w3.org/2000/svg"
   xmlns:svg="http://www.w3.org/2000/svg"><sodipodi:namedview
     id="namedview7"
     pagecolor="#505050"
     bordercolor="#eeeeee"
     borderopacity="1"
     inkscape:showpageshadow="0"
     inkscape:pageopacity="0"
     inkscape:pagecheckerboard="0"
     inkscape:deskcolor="#505050"
     inkscape:document-units="mm"
     showgrid="false"
     inkscape:zoom="1.5625561"
     inkscape:cx="110.07605"
     inkscape:cy="23.359161"
     inkscape:window-width="1884"
     inkscape:window-height="1052"
     inkscape:window-x="1402"
     inkscape:window-y="0"
     inkscape:window-maximized="1"
     inkscape:current-layer="layer1" /><defs
     id="defs2" /><g
     inkscape:label="Capa 1"
     inkscape:groupmode="layer"
     id="layer1"
     transform="translate(-207.37821,-240.68651)"><path
       style="fill:#f9f9f9"
       d="m 253.24639,331.33788 c -30.37961,-6.66198 -47.27937,-24.27363 -45.7757,-47.70398 0.63885,-9.95472 4.0428,-16.64156 12.34312,-24.2473 24.51853,-22.46677 72.51098,-25.11057 102.43258,-5.64279 12.92126,8.40691 18.9911,17.66434 19.79497,30.19032 1.39323,21.70957 -14.14045,39.09505 -41.49905,46.44621 -11.33396,3.0454 -35.54016,3.53547 -47.29592,0.95754 z m 34.02623,-6.16688 c 15.19573,-1.89416 31.1523,-8.45252 40.62816,-16.69869 5.089,-4.4286 10.09736,-12.73225 11.36634,-18.84491 0.641,-3.08767 0.78606,-5.97438 0.32236,-6.41491 -0.4637,-0.44053 -5.11809,0.46331 -10.34309,2.00854 -15.99568,4.73053 -16,4.73284 -16,8.54736 0,3.44255 -2.7801,6.45199 -5.97251,6.4652 -0.84012,0.004 -2.28479,1.33733 -3.21038,2.96411 -0.98458,1.73046 -2.85183,3.22991 -4.5,3.61361 -1.54941,0.36071 -3.3325,1.29844 -3.96242,2.08385 -1.43991,1.79534 -10.99305,5.33719 -14.34057,5.3168 -1.38277,-0.008 -3.16251,-0.42557 -3.95499,-0.92698 -0.93198,-0.58969 -2.42994,-0.4002 -4.24137,0.53653 -3.33323,1.72368 -7.46389,0.94525 -9.12854,-1.72028 -0.65743,-1.0527 -2.31171,-1.87396 -3.77478,-1.87396 -1.43246,0 -3.41895,-0.9 -4.41444,-2 -0.99549,-1.1 -2.67485,-2 -3.73191,-2 -1.05707,0 -3.21841,-1.29647 -4.80298,-2.88104 -1.58457,-1.58457 -3.96799,-3.15385 -5.29649,-3.48728 -2.51665,-0.63164 -5.36245,-5.70002 -4.22962,-7.53298 0.89533,-1.44867 -5.83658,-4.6431 -15.97851,-7.58211 -12.53934,-3.63376 -12.87592,-3.57156 -12.08587,2.23341 3.45131,25.35883 39.27234,42.97776 77.65161,38.19373 z m -13.06141,-14.87799 c 2.26471,-4.23165 -0.047,-8.06574 -4.86306,-8.06574 -2.45058,0 -2.7098,-0.31049 -2.34341,-2.80688 0.52319,-3.56475 -1.76802,-5.56547 -5.71082,-4.98679 -1.81383,0.26621 -3.15846,-0.053 -3.45268,-0.81974 -0.93987,-2.44926 -4.1006,-3.35565 -6.80642,-1.95185 -2.24291,1.16363 -2.74529,1.09653 -4.15992,-0.55564 -2.2013,-2.57093 -4.26957,-2.35655 -6.23726,0.64652 -1.55309,2.37032 -1.54182,2.65052 0.1832,4.55665 1.25316,1.38472 2.56794,1.84782 4.1318,1.45532 1.77722,-0.44605 2.29375,-0.15592 2.29375,1.28837 0,2.80464 3.5023,5.51577 6.2383,4.82908 1.75551,-0.44061 2.55679,-0.0442 3.29811,1.63148 0.73394,1.65904 1.76416,2.1795 4.11299,2.07782 2.40509,-0.10411 3.38651,0.41906 4.22074,2.25 1.42124,3.11929 7.50526,3.42126 9.09468,0.4514 z m 10.58858,0.84785 c 0.36929,-0.59752 -0.81743,-2.62252 -2.63715,-4.5 -4.30542,-4.44206 -2.87437,-4.38955 2.35478,0.0864 4.7028,4.02543 5.75919,4.22908 8.16239,1.57357 1.67667,-1.85269 1.58131,-2.10227 -2.49122,-6.52045 -2.32905,-2.52671 -4.02371,-4.80494 -3.76593,-5.06272 0.25778,-0.25778 2.83532,1.55142 5.72787,4.02046 2.89254,2.46902 5.41062,4.48914 5.59573,4.48914 1.48146,0 3.74058,-1.58078 4.62751,-3.23801 0.92648,-1.73115 0.28289,-2.79994 -4.74648,-7.88235 -7.09059,-7.16535 -5.53489,-7.81112 2.1191,-0.87964 3.03665,2.75 5.99599,5 6.57633,5 2.24832,0 4.92367,-2.15836 4.92367,-3.97221 0,-2.01194 -24.51471,-23.69124 -29.99357,-26.52446 -3.55726,-1.83953 -6.29977,-0.94135 -14.85692,4.86572 -6.06692,4.11713 -10.6287,4.68302 -14.23176,1.76543 l -2.30382,-1.86552 3.68689,-4.30729 c 2.02778,-2.36902 3.52404,-4.47015 3.32501,-4.66918 -0.19903,-0.19903 -2.16808,0.044 -4.37566,0.53997 -5.03075,1.13033 -13.09534,-0.0833 -21.97778,-3.30747 l -6.75322,-2.45129 -3.3155,3.21315 c -4.03233,3.90783 -8.82404,11.24896 -9.72536,14.8997 -0.61768,2.50186 -0.36473,2.76338 3.67921,3.80408 11.04829,2.84325 15.69135,4.35905 20.11318,6.56627 3.96664,1.98 5.18856,2.19097 7.25,1.25172 1.86321,-0.84894 3.12908,-0.83359 5.09421,0.0618 1.4382,0.65529 3.49637,0.91167 4.57372,0.56974 2.1386,-0.67877 7.81137,1.26836 7.81137,2.68118 0,0.48327 1.42707,0.87868 3.17126,0.87868 3.63623,0 6.82874,2.43433 6.82874,5.20701 0,1.21169 1.09144,2.27751 3.02111,2.95019 3.5041,1.22154 4.97889,3.50049 4.97889,7.69372 0,1.64033 0.5625,3.20939 1.25,3.4868 2.25513,0.90997 5.61876,0.68364 6.3034,-0.42413 z m 52.8216,-30.90921 c 1.57303,-0.004 1.77259,-0.51643 1.23912,-3.18379 -0.75843,-3.79212 -5.42282,-11.30507 -9.36145,-15.07852 l -2.82941,-2.71075 -5.46163,2.13347 c -8.30593,3.24453 -19.50572,3.01155 -27.96163,-0.58168 -4.35786,-1.85181 -8.99134,-2.93608 -14.05959,-3.29006 -9.28636,-0.64858 -12.86236,0.91624 -20.94041,9.1633 -4.49395,4.58797 -5.22562,5.78866 -4,6.56405 2.51715,1.59247 5.54455,1.10074 9.36045,-1.5204 2.00175,-1.375 5.27735,-3.625 7.2791,-5 5.86685,-4.02994 9.09545,-3.40986 17.54494,3.36966 4.02353,3.22832 10.64995,8.76053 14.72538,12.29381 l 7.40988,6.42414 12.59012,-4.28942 c 6.92457,-2.35919 13.43388,-4.2914 14.46513,-4.29381 z m -81.375,-19.33314 c 3.025,-0.66019 6.68541,-1.99892 8.13424,-2.97495 1.44883,-0.97604 5.27383,-2.26297 8.5,-2.85985 6.3012,-1.16581 10.56763,-0.40173 22.59078,4.0458 6.94359,2.56853 16.21965,2.76881 23.812,0.51413 5.12145,-1.52091 5.29846,-1.68188 3.4315,-3.12049 -3.64654,-2.80985 -17.91382,-9.04092 -24.96852,-10.90471 -9.89564,-2.61433 -36.02437,-2.62642 -46,-0.0213 -7.23943,1.89058 -26.10336,10.38008 -25.16032,11.32313 1.263,1.26299 16.50846,5.19137 20.16032,5.1948 2.2,0.002 6.475,-0.53639 9.5,-1.19658 z m 162,47.82876 c 0,-16.16667 0.15238,-17.65238 2,-19.5 1.1,-1.1 2.675,-2 3.5,-2 1.28205,0 1.5,2.83333 1.5,19.5 v 19.5 h -3.5 -3.5 z m 13,3.06037 v -14.56037 h 4.02746 4.02745 l -0.27745,14.25 -0.27746,14.25 -3.75,0.31037 -3.75,0.31036 z m 20.0964,13.17489 c -1.32198,-0.67939 -3.34698,-2.50512 -4.5,-4.05718 -1.89445,-2.55008 -2.0964,-4.17127 -2.0964,-16.82932 0,-12.7112 0.17963,-14.13886 1.94113,-15.42808 1.06762,-0.78137 2.75512,-1.42068 3.75,-1.42068 1.56396,0 1.80887,0.90106 1.80887,6.65499 0,6.2722 0.10066,6.56427 1.75,5.07791 2.80076,-2.52401 6.63133,-3.01824 10.58608,-1.36584 5.1079,2.13422 7.65556,6.768 7.66018,13.9326 0.004,6.8564 -1.90923,11.08685 -5.96353,13.18341 -3.52901,1.82493 -11.61054,1.96138 -14.93633,0.25219 z m 12.37792,-7.6856 c 0.83912,-1.62269 1.52568,-4.12003 1.52568,-5.54966 0,-1.42963 -0.68656,-3.92697 -1.52568,-5.54966 -1.23798,-2.39399 -2.17014,-2.95034 -4.9433,-2.95034 -4.29895,0 -6.53102,2.905 -6.53102,8.5 0,5.595 2.23207,8.5 6.53102,8.5 2.77316,0 3.70532,-0.55635 4.9433,-2.95034 z m 11.52942,-0.79966 c 0.003,-7.89962 0.37353,-10.35648 1.95226,-12.94567 2.58561,-4.24052 5.88288,-6.276 10.63621,-6.56595 3.84311,-0.23443 3.91293,-0.17631 4.21816,3.51162 0.29249,3.53413 0.1452,3.75 -2.55888,3.75 -5.66726,0 -6.71521,1.83344 -7.09802,12.41834 l -0.34653,9.58166 h -3.40347 -3.40347 l 0.004,-9.75 z m 25.4147,8.83516 c -1.14486,-0.49285 -3.28236,-2.32316 -4.75,-4.06735 -2.23946,-2.66144 -2.66844,-4.13148 -2.66844,-9.1442 0,-9.68578 3.71426,-14.37197 12.24243,-15.44598 7.74199,-0.975 14.38205,4.35378 15.46248,12.40895 l 0.55843,4.16342 h -10.63167 c -11.36471,0 -12.13662,0.40637 -9.07497,4.77749 1.15434,1.64804 2.5607,2.22251 5.44099,2.22251 2.13635,0 4.16239,-0.45 4.50231,-1 0.73548,-1.19003 8.5,-1.36093 8.5,-0.18709 0,0.4471 -1.34954,2.10585 -2.99898,3.68612 -2.47101,2.36737 -4.01146,2.92681 -8.75,3.17771 -3.16306,0.16749 -6.68772,-0.0987 -7.83258,-0.59158 z m 12.58156,-18.08516 c 0,-1.85973 -3.98501,-5 -6.34501,-5 -1.28976,0 -3.02131,0.7875 -3.8479,1.75 -3.42956,3.99348 -3.21022,4.25 3.63389,4.25 3.70601,0 6.55902,-0.43498 6.55902,-1 z m -82,-16.5 c 0,-3.41667 0.0952,-3.5 4,-3.5 3.90476,0 4,0.0833 4,3.5 0,3.41667 -0.0952,3.5 -4,3.5 -3.90476,0 -4,-0.0833 -4,-3.5 z m -68,-18.53212 c 0,-11.65499 1.41778,-16.09832 5.87156,-18.40146 4.0702,-2.10478 9.39925,-1.97747 12.20131,0.2915 2.24012,1.81394 2.374,1.81097 5.6562,-0.12558 4.78279,-2.82191 10.84255,-1.89477 14.52093,2.22169 2.66171,2.97872 2.75,3.44623 2.75,14.56175 v 11.48422 h -3 -3 v -9.27749 c 0,-10.3044 -1.36632,-13.72251 -5.48528,-13.72251 -4.55518,0 -5.51472,2.27438 -5.51472,13.07143 v 9.92857 h -3.5 -3.5 v -10.3 c 0,-11.11358 -0.62458,-12.7 -5,-12.7 -4.37542,0 -5,1.58642 -5,12.7 v 10.3 h -3.5 -3.5 z m 51.36671,8.11406 c -4.95503,-3.02143 -6.36716,-5.80763 -6.36297,-12.55445 0.005,-7.32973 2.48534,-11.99824 7.48604,-14.08767 10.0196,-4.18645 20.51022,2.10201 20.51022,12.29458 v 3.2656 h -10.5 c -11.36505,0 -12.70928,0.79072 -8.5,5 2.12122,2.12122 8.39866,2.782 9.5,1 0.63976,-1.03516 8.5,-1.43673 8.5,-0.43426 0,0.31116 -0.46334,1.4315 -1.02964,2.48965 -2.62243,4.90005 -13.72112,6.61354 -19.60365,3.02655 z m 13.63329,-17.52524 c 0,-1.87904 -3.85928,-4.5567 -6.56752,-4.5567 -1.16738,0 -2.7988,0.7875 -3.62539,1.75 -3.42956,3.99348 -3.21022,4.25 3.63389,4.25 5.04904,0 6.55902,-0.33227 6.55902,-1.4433 z m 12,9.84443 c 0,-11.95091 1.56154,-15.84334 7.42414,-18.50602 2.24172,-1.01815 5.08836,-1.86107 6.32586,-1.87315 1.93736,-0.0189 2.2499,0.4991 2.24929,3.72804 -6.3e-4,3.37373 -0.27315,3.76582 -2.71602,3.90766 -4.80396,0.27894 -6.28327,3.4463 -6.28327,13.45312 v 8.88922 h -3.5 -3.5 z m 23.75566,7.90202 c -5.6325,-3.61124 -7.62001,-14.35807 -3.92839,-21.24149 4.88408,-9.1069 21.05193,-9.38171 24.79576,-0.42146 1.84858,4.42429 1.88198,4.3598 -2.25836,4.3598 -2.59317,0 -4.29953,-0.71669 -5.95225,-2.5 -2.98047,-3.21598 -5.73916,-3.17137 -8.33984,0.13486 -2.50779,3.18814 -2.77209,9.92144 -0.51588,13.14263 2.19401,3.13238 6.89564,2.98799 9.03526,-0.27749 1.27568,-1.94694 2.48601,-2.5 5.47103,-2.5 3.78832,0 3.82128,0.0335 2.82988,2.87745 -1.83973,5.27747 -5.27708,7.49613 -12.17518,7.85855 -4.65002,0.24431 -6.90962,-0.11696 -8.96203,-1.43285 z m 28.4733,1.02756 c -1.69085,-0.68031 -4.22896,-5.69654 -4.22896,-8.35797 0,-3.43195 5.01943,-7.63877 10.05167,-8.42439 7.31039,-1.14126 8.09165,-1.53249 7.75663,-3.88424 -0.4469,-3.137 -7.18867,-3.69042 -8.77808,-0.72058 -0.79177,1.47943 -2.09171,2.05647 -4.63279,2.05647 -3.19491,0 -3.46822,-0.21486 -2.8621,-2.25 0.36855,-1.2375 1.70881,-3.32471 2.97835,-4.63824 4.82254,-4.98965 18.28179,-3.4101 20.49268,2.40497 1.27429,3.35164 1.28593,14.58429 0.0186,17.91771 -1.58005,4.15584 -6.61552,6.56948 -13.52493,6.48287 -3.3,-0.0414 -6.57197,-0.30533 -7.27104,-0.5866 z m 11.54853,-5.88741 c 1.45365,-1.01818 2.22251,-2.59059 2.22251,-4.54532 0,-2.90696 -0.10245,-2.97015 -3.75,-2.3129 -4.72996,0.85228 -6.25,2.05713 -6.25,4.95403 0,3.55195 4.01985,4.53614 7.77749,1.90419 z m 18.12039,4.27014 c -5.86902,-3.94947 -7.42892,-13.91827 -3.39772,-21.71375 2.97382,-5.75074 11.01588,-7.74141 15.86498,-3.92711 l 2.63486,2.07258 v -5.5374 c 0,-4.4512 0.37942,-5.74045 1.93426,-6.57258 4.88025,-2.61183 5.06574,-2.09868 5.06574,14.01448 0,16.70482 -0.8151,19.76912 -5.96727,22.43341 -4.48219,2.31783 -12.08577,1.95514 -16.13485,-0.76963 z m 12.52919,-5.28337 c 2.12764,-2.12764 2.92251,-5.75313 2.15653,-9.83616 -1.80968,-9.64639 -12.5836,-7.38766 -12.5836,2.63813 0,2.37762 0.70052,5.32307 1.5567,6.54545 1.84817,2.63862 6.53922,2.98374 8.87037,0.65258 z m 18.87148,5.61041 c -4.14808,-2.52923 -6.29855,-6.80485 -6.29855,-12.52294 0,-9.61578 5.25846,-15.50642 13.84887,-15.5138 9.1449,-0.008 15.07526,5.98402 15.12917,15.2861 0.029,5.00915 -3.27869,11.29715 -6.93819,13.18955 -4.16024,2.15135 -11.84454,1.93709 -15.7413,-0.43891 z m 12.70145,-6.04048 c 1.46667,-1.46667 2,-3.33333 2,-7 0,-8.00125 -5.56784,-11.59978 -11.06299,-7.15008 -3.06769,2.48407 -3.38605,10.88781 -0.53202,14.04365 2.41643,2.67196 6.97888,2.72256 9.59501,0.10643 z"
       id="path304" /></g></svg>
